<?xml version="1.0" encoding="UTF-8"?>
<svg id="Layer_2" data-name="Layer 2" xmlns="http://www.w3.org/2000/svg" viewBox="0 0 630.55 165.54">
  <defs>
    <style>
      .cls-1, .cls-2 {
        fill: #b2172c;
      }

      .cls-3, .cls-4 {
        fill: #13161e;
      }

      .cls-2, .cls-4, .cls-5, .cls-6 {
        fill-rule: evenodd;
      }

      .cls-5 {
        fill: #23366d;
      }

      .cls-6 {
        fill: #3e8b31;
      }
    </style>
  </defs>
  <g id="Layer_1-2" data-name="Layer 1">
    <g>
      <g>
        <path class="cls-1" d="M24.61,68.97c0,7.31-.41,11.54-5.12,17.55-2.92,3.57-8.77,8.12-13.65,8.12-2.6,0-5.85-1.38-5.85-4.39,0-1.95,1.79-3.41,3.66-3.41,1.71,0,2.84,1.14,3.74,2.52.73.98,1.3,1.95,2.68,1.95,2.11,0,4.47-2.11,5.61-3.66,2.68-3.66,2.52-10.15,2.52-14.54v-36.31c0-5.12.41-6.66-5.28-6.66-.73,0-2.03,0-2.03-1.06,0-.89.57-1.14,1.38-1.14,3.09,0,6.01.32,9.1.32s6.17-.32,9.26-.32c.73,0,1.38.24,1.38,1.14,0,1.06-1.38,1.06-2.11,1.06-5.69,0-5.28,1.54-5.28,6.66v32.17Z"/>
        <path class="cls-1" d="M54.75,58.81c2.92-1.38,3.01-1.46,3.01-4.55v-3.57c0-3.98-.16-7.31-5.2-7.31s-7.47,2.68-9.34,6.82c-.57,1.22-.97,2.36-2.27,2.92-.81.41-2.52,1.06-3.49,1.06-.65,0-1.06-.16-1.06-.98,0-2.11,1.87-4.47,3.41-5.77,3.82-3.41,9.34-5.61,14.54-5.61,2.52,0,5.52.41,7.39,2.11,1.95,1.62,1.62,3.74,1.62,5.93v19.17c0,1.79-.08,6.5,2.84,6.5,2.03,0,2.92-2.03,3.66-2.03.33,0,.57.32.57.65,0,.89-1.38,2.03-1.95,2.52-1.62,1.14-3.66,2.36-5.77,2.36-3.98,0-4.39-5.69-5.52-5.69-.73,0-6.01,6.17-13.08,6.17-3.82,0-7.64-2.36-7.64-6.42,0-5.77,7.56-9.18,12.02-11.37l6.26-2.92ZM48.9,63.36c-3.17,1.62-6.34,3.74-6.34,7.64,0,3.17,2.6,4.79,5.61,4.79,2.84,0,5.61-1.3,7.55-3.25,1.95-2.03,2.03-3.41,2.03-6.09v-4.87c0-.32.24-2.27-.57-2.27-.24,0-.65.24-.89.32l-7.39,3.74Z"/>
        <path class="cls-1" d="M80.26,55c0-1.14.08-4.31-.81-5.2-.49-.57-1.71-.65-2.36-.65h-1.06c-.49,0-.98-.16-.98-.65,0-.97,1.14-1.14,1.87-1.38,1.95-.57,5.44-2.68,6.74-4.22.41-.41.81-1.06,1.46-1.06.81,0,.73.73.73,1.3v5.36c1.38,0,5.93-6.66,13.32-6.66,4.06,0,7.31,1.46,9.59,4.39,2.6,3.33,2.44,7.31,2.44,11.21v12.84c0,3.49-.73,6.26,3.66,6.66.81.08,2.27,0,2.27,1.06,0,.65-.41.89-.98.89-2.6,0-5.2-.32-7.64-.32-2.6,0-5.2.32-7.72.32-.57,0-1.14-.16-1.14-.81,0-1.22,1.38-1.06,2.27-1.14,4.39-.41,3.66-3.17,3.66-6.66v-12.92c0-2.6,0-5.85-1.46-8.04-1.54-2.36-4.47-3.66-7.64-3.66s-5.93,1.3-8.04,3.49c-2.36,2.44-2.6,4.22-2.6,7.47v13.65c0,3.49-.73,6.26,3.66,6.66.81.08,2.27,0,2.27,1.06,0,.65-.41.89-.98.89-2.6,0-5.2-.32-7.64-.32-2.6,0-5.2.32-7.72.32-.57,0-1.14-.16-1.14-.81,0-1.22,1.38-1.06,2.27-1.14,4.39-.41,3.66-3.17,3.66-6.66v-15.27Z"/>
        <path class="cls-1" d="M130.22,56.46c-2.52,0-3.33-.16-3.33,2.52,0,9.1,5.93,16.98,15.76,16.98,7.96,0,10.97-5.28,12.02-5.28.41,0,.65.33.65.65,0,.97-2.6,3.17-3.17,3.66-3.82,3.25-7.8,4.55-12.84,4.55-10.64,0-18.52-8.53-18.52-18.68,0-5.52,1.54-9.83,5.85-13.57,4.06-3.57,9.1-5.44,14.62-5.44,4.39,0,8.85,1.54,11.7,5.04,1.62,2.03,2.84,5.52,2.84,8.2,0,.65-.16,1.38-.97,1.38h-24.61ZM136.88,54.51c2.52,0,7.07-.08,9.42-.65,1.79-.41,3.01-1.3,3.01-3.25,0-1.71-.98-3.57-2.11-4.79-1.79-1.87-4.47-2.52-7.07-2.52-4.14,0-8.12,2.03-10.56,5.44-.73.89-2.03,3.41-2.03,4.71s1.87,1.06,2.76,1.06h6.58Z"/>
      </g>
      <g>
        <path class="cls-1" d="M372.31,55.53c-5.93-2.6-11.78-5.93-11.78-13.16,0-8.53,7.72-13.73,15.68-13.73,3.17,0,7.88.57,10.89,1.79,1.54.57,1.38,1.54,1.46,3.01.08,2.11.24,4.22.32,6.34,0,.57-.32.98-.89.98-.89,0-1.06-1.3-1.3-1.87-1.79-5.61-4.22-8.61-10.56-8.61-5.36,0-10.48,2.76-10.48,8.69,0,6.99,8.94,9.83,14.22,12.1,2.68,1.22,6.09,2.92,8.04,5.04,2.36,2.6,3.9,6.17,3.9,9.67,0,4.55-2.19,8.61-5.69,11.54-3.66,3.01-8.29,4.22-13,4.22-3.98,0-8.85-1.14-12.27-3.17-1.38-.89-1.14-3.09-1.14-4.55,0-2.11,0-4.14.24-6.26.08-.65.32-1.62,1.22-1.62,1.06,0,1.06,2.03,1.14,2.68.81,6.99,4.55,11.37,11.94,11.37,6.09,0,12.1-4.14,12.1-10.56s-4.39-9.67-9.91-12.1l-4.14-1.79Z"/>
        <path class="cls-1" d="M428.85,54.23c-2.6,0-4.06-8.94-10.64-8.94-2.84,0-6.09,1.54-8.21,3.33-3.74,3.25-5.85,8.21-5.85,13.16,0,8.29,6.09,16.74,15.19,16.74,3.49,0,6.82-1.14,9.34-3.57.24-.24.81-.97,1.22-.97.32,0,.57.32.57.65,0,.81-1.87,2.44-2.44,2.92-3.33,2.68-7.39,3.98-11.78,3.98-9.99,0-18.2-8.29-18.2-18.12,0-10.97,10.24-19.58,21.12-19.58,3.09,0,7.39.89,9.99,2.68,1.06.73.65,2.52.65,3.57,0,.65.49,4.14-.97,4.14Z"/>
        <path class="cls-1" d="M445.91,48.71c.08.41.24.81.65.81.32,0,.81-.41.97-.57,3.49-3.49,6.58-5.12,11.86-5.12,3.33,0,7.31,1.06,9.34,3.9,2.44,3.33,2.36,7.64,2.36,11.62v12.92c0,3.49-.73,6.26,3.66,6.66.81.08,2.27,0,2.27,1.06,0,.65-.41.89-.97.89-2.6,0-5.2-.32-7.64-.32-2.6,0-5.2.32-7.72.32-.57,0-1.14-.16-1.14-.81,0-1.22,1.38-1.06,2.28-1.14,4.39-.41,3.66-3.17,3.66-6.66v-14.05c0-2.6,0-5.85-1.38-8.04-1.62-2.36-4.31-3.66-7.72-3.66-3.09,0-5.93,1.3-8.04,3.49-2.36,2.44-2.44,4.22-2.44,7.47v14.79c0,3.49-.73,6.26,3.66,6.66.81.08,2.27,0,2.27,1.06,0,.65-.41.89-.97.89-2.6,0-5.2-.32-7.64-.32-2.6,0-5.2.32-7.72.32-.57,0-1.14-.16-1.14-.81,0-1.22,1.38-1.06,2.27-1.14,4.39-.41,3.66-3.17,3.66-6.66v-36.96c0-3.01.73-6.58-3.17-6.58-.73,0-2.11.24-2.11-.81,0-.57.65-.81,1.14-.89,2.27-.41,5.36-1.22,7.31-2.52.41-.32,1.14-.89,1.71-.89.81,0,.73.65.73,1.3v23.8Z"/>
        <path class="cls-1" d="M499.28,60.81c2.92-1.38,3.01-1.46,3.01-4.55v-3.57c0-3.98-.16-7.31-5.2-7.31s-7.47,2.68-9.34,6.82c-.57,1.22-.98,2.36-2.28,2.92-.81.41-2.52,1.06-3.49,1.06-.65,0-1.06-.16-1.06-.98,0-2.11,1.87-4.47,3.41-5.77,3.82-3.41,9.34-5.61,14.54-5.61,2.52,0,5.52.41,7.39,2.11,1.95,1.62,1.62,3.74,1.62,5.93v19.17c0,1.79-.08,6.5,2.84,6.5,2.03,0,2.92-2.03,3.66-2.03.32,0,.57.32.57.65,0,.89-1.38,2.03-1.95,2.52-1.62,1.14-3.66,2.36-5.77,2.36-3.98,0-4.39-5.69-5.52-5.69-.73,0-6.01,6.17-13.08,6.17-3.82,0-7.64-2.36-7.64-6.42,0-5.77,7.55-9.18,12.02-11.37l6.25-2.92ZM493.43,65.36c-3.17,1.62-6.34,3.74-6.34,7.64,0,3.17,2.6,4.79,5.61,4.79,2.84,0,5.61-1.3,7.56-3.25,1.95-2.03,2.03-3.41,2.03-6.09v-4.87c0-.32.24-2.27-.57-2.27-.24,0-.65.24-.89.32l-7.39,3.74Z"/>
        <path class="cls-1" d="M525.71,77.77c-1.33,4.16-2.2,7.62-4.63,11.31-2.51,3.77-6.28,6.75-11.07,6.75-3.06,0-7.15-1.34-7.15-5.03,0-1.89,1.49-3.3,3.38-3.3,2.59,0,3.53,2.36,3.38,4.63,0,1.26-.08,2.36,1.49,2.36,1.88,0,3.14-1.33,4.08-2.83,1.96-3.06,3.93-9.82,5.03-13.43l10.13-33.14h-4.32c-.39,0-1.81.24-1.81-.55,0-1.57.94-1.49,2.2-1.49h4.56l.39-1.33c1.33-4.32,3.14-9.58,6.28-12.88,2.59-2.67,7.93-5.73,11.7-5.73,2.91,0,5.73,1.26,5.73,4.55,0,2.12-1.33,3.46-3.38,3.46-4.87,0-1.88-5.89-5.34-5.89-1.41,0-2.98,1.26-3.85,2.28-2.36,2.59-3.69,7.38-4.71,10.76l-1.49,4.79h5.97c.24,0,1.81-.16,1.81.55,0,.31-.08.55-.31,1.1-.39.55-1.33.39-1.81.39h-6.28l-9.97,32.67Z"/>
        <path class="cls-1" d="M549.64,80.47c-1.38,4.31-2.27,7.88-4.79,11.7-2.6,3.9-6.5,6.99-11.45,6.99-3.17,0-7.39-1.38-7.39-5.2,0-1.95,1.54-3.41,3.49-3.41,2.68,0,3.66,2.44,3.49,4.79,0,1.3-.08,2.44,1.54,2.44,1.95,0,3.25-1.38,4.22-2.92,2.03-3.17,4.06-10.15,5.2-13.89l10.48-34.28h-4.47c-.41,0-1.87.24-1.87-.57,0-1.62.97-1.54,2.28-1.54h4.71l.41-1.38c1.38-4.47,3.25-9.91,6.5-13.32,2.68-2.76,8.21-5.93,12.1-5.93,3.01,0,5.93,1.3,5.93,4.71,0,2.19-1.38,3.57-3.49,3.57-5.04,0-1.95-6.09-5.52-6.09-1.46,0-3.09,1.3-3.98,2.36-2.44,2.68-3.82,7.64-4.87,11.13l-1.54,4.96h6.17c.24,0,1.87-.16,1.87.57,0,.32-.08.57-.33,1.14-.41.57-1.38.41-1.87.41h-6.5l-10.32,33.79Z"/>
        <path class="cls-1" d="M574.18,58.46c-2.52,0-3.33-.16-3.33,2.52,0,9.1,5.93,16.98,15.76,16.98,7.96,0,10.97-5.28,12.02-5.28.41,0,.65.33.65.65,0,.97-2.6,3.17-3.17,3.66-3.82,3.25-7.8,4.55-12.84,4.55-10.64,0-18.52-8.53-18.52-18.68,0-5.52,1.54-9.83,5.85-13.57,4.06-3.57,9.1-5.44,14.62-5.44,4.39,0,8.85,1.54,11.7,5.04,1.63,2.03,2.84,5.52,2.84,8.2,0,.65-.16,1.38-.98,1.38h-24.61ZM580.84,56.51c2.52,0,7.07-.08,9.42-.65,1.79-.41,3.01-1.3,3.01-3.25,0-1.71-.97-3.57-2.11-4.79-1.79-1.87-4.47-2.52-7.07-2.52-4.14,0-8.12,2.03-10.56,5.44-.73.89-2.03,3.41-2.03,4.71s1.87,1.06,2.76,1.06h6.58Z"/>
        <path class="cls-1" d="M610.32,56.99c0-1.14.08-4.31-.81-5.2-.49-.57-1.71-.65-2.36-.65h-1.06c-.49,0-.97-.16-.97-.65,0-.97,1.14-1.14,1.87-1.38,1.95-.57,5.44-2.68,6.74-4.22.41-.41.81-1.06,1.46-1.06.81,0,.73.73.73,1.3v3.98c0,.33-.16,1.71.41,1.71.81,0,3.98-6.5,9.59-6.5,2.44,0,4.63,1.46,4.63,3.9,0,2.03-1.46,3.25-3.41,3.25-2.76,0-2.92-3.09-5.2-3.09-1.79,0-3.17,1.71-4.14,2.92-1.95,2.76-1.87,4.87-1.87,8.12v12.84c0,3.49-.73,6.26,3.66,6.66.81.08,2.27,0,2.27,1.06,0,.65-.41.89-.97.89-2.6,0-5.2-.32-7.64-.32-2.6,0-5.2.32-7.72.32-.57,0-1.14-.16-1.14-.81,0-1.22,1.38-1.06,2.27-1.14,4.39-.41,3.66-3.17,3.66-6.66v-15.27Z"/>
      </g>
      <g>
        <path class="cls-3" d="M13.15,138.96l12.09,25.93h-2.8l-4.08-8.53H7.2l-4.04,8.53H.26l12.25-25.93h.64ZM12.82,144.47l-4.44,9.39h8.87l-4.42-9.39Z"/>
        <path class="cls-3" d="M55.94,143.77l-2.05,1.57c-1.13-1.47-2.48-2.58-4.06-3.34s-3.32-1.14-5.21-1.14c-2.07,0-3.98.5-5.75,1.49-1.76.99-3.13,2.33-4.1,4-.97,1.67-1.45,3.56-1.45,5.65,0,3.16,1.08,5.8,3.25,7.92,2.17,2.12,4.9,3.17,8.21,3.17,3.63,0,6.67-1.42,9.11-4.27l2.05,1.55c-1.29,1.65-2.91,2.92-4.84,3.82-1.93.9-4.09,1.35-6.48,1.35-4.54,0-8.12-1.51-10.74-4.53-2.2-2.55-3.3-5.63-3.3-9.24,0-3.8,1.33-6.99,3.99-9.58,2.66-2.59,6-3.89,10-3.89,2.42,0,4.61.48,6.56,1.44,1.95.96,3.55,2.3,4.8,4.03Z"/>
        <path class="cls-3" d="M74.27,138.96l12.09,25.93h-2.8l-4.08-8.53h-11.17l-4.04,8.53h-2.89l12.25-25.93h.64ZM73.94,144.47l-4.44,9.39h8.87l-4.42-9.39Z"/>
        <path class="cls-3" d="M92.91,164.89v-25.93h5.38c3.88,0,6.69.31,8.44.93,2.51.88,4.48,2.41,5.9,4.58s2.12,4.77,2.12,7.77c0,2.6-.56,4.88-1.68,6.86s-2.58,3.43-4.37,4.37c-1.79.94-4.3,1.41-7.54,1.41h-8.25ZM95.39,162.44h3c3.58,0,6.07-.22,7.46-.67,1.95-.63,3.48-1.78,4.6-3.43,1.12-1.65,1.67-3.67,1.67-6.05,0-2.5-.61-4.64-1.82-6.41-1.21-1.77-2.9-2.99-5.06-3.65-1.62-.49-4.3-.74-8.02-.74h-1.83v20.94Z"/>
        <path class="cls-3" d="M122.32,138.96h14.86v2.54h-12.27v8.13h12.16v2.54h-12.16v10.19h12.16v2.54h-14.76v-25.93Z"/>
        <path class="cls-3" d="M143,164.89l3.71-25.93h.42l10.54,21.28,10.44-21.28h.42l3.73,25.93h-2.54l-2.56-18.55-9.17,18.55h-.66l-9.28-18.69-2.55,18.69h-2.5Z"/>
        <path class="cls-3" d="M179.52,138.96h2.59v25.93h-2.59v-25.93Z"/>
        <path class="cls-3" d="M214.73,143.77l-2.05,1.57c-1.13-1.47-2.48-2.58-4.06-3.34s-3.32-1.14-5.21-1.14c-2.07,0-3.98.5-5.75,1.49-1.76.99-3.13,2.33-4.1,4-.97,1.67-1.45,3.56-1.45,5.65,0,3.16,1.08,5.8,3.25,7.92,2.17,2.12,4.9,3.17,8.21,3.17,3.63,0,6.67-1.42,9.11-4.27l2.05,1.55c-1.29,1.65-2.91,2.92-4.84,3.82-1.93.9-4.09,1.35-6.48,1.35-4.54,0-8.12-1.51-10.74-4.53-2.2-2.55-3.3-5.63-3.3-9.24,0-3.8,1.33-6.99,3.99-9.58,2.66-2.59,6-3.89,10-3.89,2.42,0,4.61.48,6.56,1.44,1.95.96,3.55,2.3,4.8,4.03Z"/>
        <path class="cls-3" d="M233.51,138.96h2.66l5.3,18.69,7.43-18.69h.54l7.35,18.69,5.39-18.69h2.64l-7.45,25.93h-.48l-7.7-19.62-7.84,19.62h-.48l-7.35-25.93Z"/>
        <path class="cls-3" d="M272.3,138.96h5.17c2.88,0,4.83.12,5.85.35,1.54.35,2.79,1.11,3.75,2.27.96,1.16,1.45,2.59,1.45,4.28,0,1.41-.33,2.65-1,3.72-.66,1.07-1.61,1.88-2.85,2.43-1.23.55-2.94.83-5.11.84l9.33,12.04h-3.21l-9.33-12.04h-1.46v12.04h-2.59v-25.93ZM274.9,141.5v8.81l4.47.04c1.73,0,3.01-.16,3.84-.49.83-.33,1.48-.85,1.94-1.58.46-.72.7-1.53.7-2.42s-.24-1.66-.71-2.37c-.47-.71-1.09-1.22-1.85-1.52s-2.04-.46-3.81-.46h-4.57Z"/>
        <path class="cls-3" d="M296.23,138.96h2.59v25.93h-2.59v-25.93Z"/>
        <path class="cls-3" d="M304.72,141.5v-2.54h14.21v2.54h-5.78v23.39h-2.64v-23.39h-5.78Z"/>
        <path class="cls-3" d="M324.82,138.96h2.59v25.93h-2.59v-25.93Z"/>
        <path class="cls-3" d="M335.9,164.89v-25.93h.56l17.26,19.88v-19.88h2.56v25.93h-.58l-17.12-19.64v19.64h-2.68Z"/>
        <path class="cls-3" d="M390.13,143.31l-2.01,1.9c-1.45-1.42-3.03-2.5-4.75-3.24-1.72-.73-3.4-1.1-5.03-1.1-2.03,0-3.97.5-5.81,1.5-1.84,1-3.26,2.35-4.27,4.06-1.01,1.71-1.52,3.52-1.52,5.42s.52,3.81,1.57,5.56,2.49,3.14,4.34,4.14c1.84,1.01,3.87,1.51,6.06,1.51,2.67,0,4.92-.75,6.77-2.26,1.84-1.5,2.94-3.46,3.28-5.85h-8.27v-2.5h11.18c-.02,4.01-1.21,7.19-3.57,9.55-2.36,2.36-5.51,3.53-9.46,3.53-4.8,0-8.59-1.63-11.39-4.9-2.15-2.52-3.23-5.42-3.23-8.73,0-2.46.62-4.74,1.85-6.86,1.23-2.12,2.93-3.77,5.08-4.96,2.15-1.19,4.58-1.79,7.3-1.79,2.2,0,4.27.4,6.21,1.19,1.94.79,3.83,2.07,5.68,3.82Z"/>
        <path class="cls-3" d="M411.63,138.96h5.16c2.96,0,4.96.13,5.99.39,1.48.36,2.69,1.11,3.63,2.25.94,1.13,1.41,2.56,1.41,4.28s-.46,3.15-1.38,4.28c-.92,1.12-2.18,1.88-3.79,2.27-1.17.28-3.37.42-6.59.42h-1.85v12.06h-2.59v-25.93ZM414.23,141.5v8.8l4.39.05c1.77,0,3.07-.16,3.9-.48.82-.32,1.47-.84,1.94-1.57s.71-1.53.71-2.42-.24-1.66-.71-2.38-1.09-1.23-1.86-1.54-2.03-.46-3.78-.46h-4.58Z"/>
        <path class="cls-3" d="M435.69,138.96h5.16c2.88,0,4.83.12,5.85.35,1.54.35,2.79,1.11,3.75,2.27.96,1.16,1.45,2.59,1.45,4.28,0,1.41-.33,2.65-1,3.72s-1.61,1.88-2.85,2.43c-1.23.55-2.94.83-5.11.84l9.33,12.04h-3.21l-9.33-12.04h-1.47v12.04h-2.59v-25.93ZM438.28,141.5v8.81l4.47.04c1.73,0,3.01-.16,3.84-.49.83-.33,1.48-.85,1.94-1.58.46-.72.7-1.53.7-2.42s-.24-1.66-.71-2.37c-.47-.71-1.09-1.22-1.85-1.52s-2.04-.46-3.81-.46h-4.57Z"/>
        <path class="cls-3" d="M472.33,138.31c3.93,0,7.22,1.31,9.86,3.93s3.97,5.85,3.97,9.68-1.32,7.02-3.96,9.66c-2.64,2.64-5.86,3.97-9.66,3.97s-7.09-1.32-9.74-3.95-3.97-5.82-3.97-9.56c0-2.49.6-4.8,1.81-6.93s2.85-3.79,4.93-5c2.08-1.2,4.33-1.81,6.76-1.81ZM472.45,140.83c-1.92,0-3.74.5-5.46,1.5-1.72,1-3.06,2.35-4.03,4.04-.97,1.69-1.45,3.58-1.45,5.66,0,3.08,1.07,5.68,3.2,7.81,2.14,2.12,4.71,3.19,7.73,3.19,2.01,0,3.87-.49,5.59-1.46,1.71-.98,3.05-2.31,4.01-4.01.96-1.69,1.44-3.57,1.44-5.65s-.48-3.92-1.44-5.58-2.31-3-4.05-4c-1.74-1-3.59-1.5-5.54-1.5Z"/>
        <path class="cls-3" d="M518.91,143.31l-2.01,1.9c-1.45-1.42-3.03-2.5-4.75-3.24-1.72-.73-3.4-1.1-5.03-1.1-2.03,0-3.97.5-5.81,1.5-1.84,1-3.26,2.35-4.27,4.06-1.01,1.71-1.52,3.52-1.52,5.42s.52,3.81,1.57,5.56,2.49,3.14,4.34,4.14c1.84,1.01,3.87,1.51,6.06,1.51,2.67,0,4.92-.75,6.77-2.26,1.84-1.5,2.94-3.46,3.28-5.85h-8.27v-2.5h11.18c-.02,4.01-1.21,7.19-3.57,9.55-2.36,2.36-5.51,3.53-9.46,3.53-4.8,0-8.59-1.63-11.39-4.9-2.15-2.52-3.23-5.42-3.23-8.73,0-2.46.62-4.74,1.85-6.86,1.23-2.12,2.93-3.77,5.08-4.96,2.15-1.19,4.58-1.79,7.3-1.79,2.2,0,4.27.4,6.21,1.19,1.94.79,3.83,2.07,5.68,3.82Z"/>
        <path class="cls-3" d="M528.04,138.96h5.16c2.88,0,4.83.12,5.85.35,1.54.35,2.79,1.11,3.75,2.27.96,1.16,1.45,2.59,1.45,4.28,0,1.41-.33,2.65-1,3.72s-1.61,1.88-2.85,2.43c-1.23.55-2.94.83-5.11.84l9.33,12.04h-3.21l-9.33-12.04h-1.47v12.04h-2.59v-25.93ZM530.64,141.5v8.81l4.47.04c1.73,0,3.01-.16,3.84-.49.83-.33,1.48-.85,1.94-1.58.46-.72.7-1.53.7-2.42s-.24-1.66-.71-2.37c-.47-.71-1.09-1.22-1.85-1.52s-2.04-.46-3.81-.46h-4.57Z"/>
        <path class="cls-3" d="M562.94,138.96l12.09,25.93h-2.8l-4.08-8.53h-11.17l-4.04,8.53h-2.89l12.25-25.93h.63ZM562.61,144.47l-4.44,9.39h8.87l-4.42-9.39Z"/>
        <path class="cls-3" d="M580.4,164.89l3.71-25.93h.42l10.54,21.28,10.44-21.28h.42l3.73,25.93h-2.54l-2.56-18.55-9.17,18.55h-.66l-9.28-18.69-2.55,18.69h-2.5Z"/>
        <path class="cls-3" d="M630.07,145.06c0,1.45-.36,2.8-1.08,4.05s-1.71,2.23-2.96,2.96-2.6,1.09-4.03,1.09-2.78-.36-4.03-1.09-2.24-1.71-2.96-2.96c-.72-1.25-1.08-2.58-1.08-4.01s.36-2.79,1.08-4.05c.72-1.26,1.71-2.25,2.96-2.97s2.6-1.08,4.03-1.08,2.78.36,4.02,1.07,2.23,1.71,2.95,2.97c.73,1.26,1.09,2.6,1.09,4.02ZM628.95,145.07c0-1.23-.31-2.39-.94-3.48-.62-1.09-1.47-1.94-2.54-2.57-1.07-.62-2.22-.94-3.45-.94s-2.4.31-3.49.94c-1.09.62-1.94,1.48-2.56,2.57s-.93,2.25-.93,3.5.31,2.4.93,3.48,1.47,1.93,2.56,2.55c1.09.62,2.25.94,3.48.94s2.38-.31,3.45-.94c1.08-.63,1.92-1.48,2.54-2.55s.93-2.24.93-3.49ZM618.64,140.36h3.87c.91,0,1.56.09,1.95.27s.72.48.97.89c.25.41.38.89.38,1.44,0,.47-.09.88-.27,1.22-.14.25-.44.53-.89.83.42.21.7.44.84.72.14.27.22.74.22,1.39v1.05c0,.49.11.91.33,1.23l.15.25h-1.64c-.11-.38-.18-.84-.22-1.37l-.08-1.14c-.03-.42-.09-.71-.2-.89-.11-.17-.26-.3-.45-.37-.19-.08-.58-.11-1.16-.11h-2.33v3.88h-1.47v-9.3ZM620.11,141.7v2.75h2.28c.69,0,1.16-.08,1.41-.24.36-.23.54-.61.54-1.15,0-.47-.13-.82-.39-1.04-.26-.22-.75-.33-1.47-.33h-2.37Z"/>
      </g>
      <g>
        <polygon class="cls-2" points="253.62 117.14 210.52 92.91 210.52 0 253.62 10.29 253.62 117.14"/>
        <polygon class="cls-4" points="203.52 10.8 203.46 97.42 232.07 113.5 183.17 97.51 183.17 6.88 203.52 10.8"/>
        <polygon class="cls-6" points="261.08 117.14 304.18 92.91 304.18 0 261.08 10.29 261.08 117.14"/>
        <polygon class="cls-5" points="311.19 10.8 311.24 97.42 282.63 113.5 331.53 97.51 331.53 6.88 311.19 10.8"/>
      </g>
    </g>
  </g>
</svg>